<?xml version="1.0" encoding="utf-8" ?>
<svg baseProfile="tiny" height="58.0638" version="1.2" viewBox="-29.031881680923675,-29.031881680923675,58.06376336184735,58.06376336184735" width="58.0638" xmlns="http://www.w3.org/2000/svg" xmlns:ev="http://www.w3.org/2001/xml-events" xmlns:xlink="http://www.w3.org/1999/xlink"><defs /><polyline fill="white" points="14.1421,14.1421 14.0731,14.2212 14.0139,14.3106 13.9644,14.4101 13.9241,14.5199 13.8927,14.6398 13.8696,14.7696 13.8545,14.9092 13.8466,15.058 13.8454,15.2159 13.8502,15.3822 13.8603,15.5565 13.8751,15.7382 13.8936,15.9266 13.9153,16.121 13.9392,16.3207 13.9647,16.525 13.991,16.733 14.0172,16.9439 14.0428,17.1569 14.0669,17.3711 14.0888,17.5857 14.108,17.7998 14.1238,18.0127 14.1356,18.2235 14.1429,18.4314 14.1453,18.6357 14.1423,18.8357 14.1335,19.0308 14.1188,19.2204 14.0978,19.404 14.0704,19.581 14.0364,19.7512 13.9959,19.9142 13.9488,20.0697 13.8952,20.2176 13.8352,20.3578 13.7689,20.4903 13.6968,20.6153 13.6189,20.7328 13.5356,20.843 13.4473,20.9464 13.3545,21.0433 13.2574,21.1341 13.1566,21.2194 13.0525,21.2997 12.9456,21.3757 12.8364,21.448 12.7254,21.5175 12.6131,21.5848 12.5,21.6506 12.3865,21.7159 12.2732,21.7814 12.1604,21.8479 12.0486,21.9163 11.9381,21.9872 11.8293,22.0616 11.7225,22.14 11.618,22.2232 11.516,22.3119 11.4167,22.4066 11.3203,22.5079 11.2268,22.6162 11.1363,22.732 11.0488,22.8554 10.9642,22.9869 10.8825,23.1265 10.8036,23.2743 10.7272,23.4303 10.6532,23.5943 10.5814,23.7662 10.5114,23.9457 10.443,24.1323 10.3758,24.3257 10.3094,24.5252 10.2436,24.7302 10.1778,24.94 10.1118,25.1539 10.0451,25.371 9.9773,25.5904 9.908,25.8112 9.8368,26.0324 9.7634,26.2529 9.6873,26.4717 9.6082,26.6877 9.5258,26.9 9.4398,27.1073 9.3499,27.3088 9.2558,27.5032 9.1575,27.6896 9.0546,27.8671 8.947,28.0347 8.8347,28.1915 8.7175,28.3368 8.5955,28.4697 8.4687,28.5897 8.337,28.6961 8.2006,28.7885 8.0597,28.8664 7.9142,28.9296 7.7646,28.9778 7.6109,29.0109 7.4534,29.0289 7.2923,29.0319 7.128,29.0201 6.9608,28.9937 6.7909,28.9533 6.6188,28.8991 6.4447,28.8319 6.269,28.7522 6.0921,28.6609 5.9142,28.5586 5.7358,28.4464 5.5571,28.325 5.3786,28.1955 5.2004,28.059 5.0229,27.9164 4.8464,27.7688 4.6711,27.6173 4.4973,27.4631 4.325,27.3072 4.1546,27.1506 3.9862,26.9945 3.8199,26.8399 3.6558,26.6876 3.4939,26.5388 3.3344,26.3941 3.1771,26.2545 3.0223,26.1207 2.8697,25.9933 2.7193,25.8729 2.5712,25.7599 2.4251,25.6548 2.281,25.5579 2.1387,25.4694 1.9982,25.3893 1.8592,25.3178 1.7217,25.2546 1.5854,25.1996 1.4503,25.1526 1.3161,25.1131 1.1828,25.0807 1.0501,25.0549 0.918,25.0351 0.7863,25.0205 0.6549,25.0106 0.5238,25.0044 0.3927,25.0011 0.2618,24.9999 0.1309,24.9998 0.0,25.0 -0.1309,24.9995 -0.2618,24.9974 -0.3926,24.9927 -0.5234,24.9847 -0.6539,24.9723 -0.7842,24.9548 -0.9142,24.9313 -1.0437,24.9012 -1.1725,24.8638 -1.3007,24.8184 -1.4279,24.7645 -1.5541,24.7017 -1.6791,24.6296 -1.8027,24.548 -1.9248,24.4565 -2.0452,24.3552 -2.1637,24.2441 -2.2803,24.1233 -2.3948,23.9929 -2.5071,23.8532 -2.617,23.7048 -2.7246,23.5479 -2.8297,23.3833 -2.9323,23.2116 -3.0324,23.0335 -3.13,22.8498 -3.2252,22.6613 -3.3179,22.4691 -3.4084,22.2741 -3.4967,22.0773 -3.5829,21.8797 -3.6673,21.6825 -3.75,21.4867 -3.8313,21.2934 -3.9114,21.1038 -3.9905,20.9188 -4.069,20.7396 -4.1471,20.5672 -4.2252,20.4025 -4.3035,20.2465 -4.3825,20.1 -4.4625,19.9639 -4.5437,19.8389 -4.6266,19.7257 -4.7115,19.6248 -4.7987,19.5366 -4.8884,19.4617 -4.9811,19.4003 -5.077,19.3525 -5.1764,19.3185" stroke="goldenrod" stroke-width="3" /><polyline fill="white" points="-5.1764,19.3185 -5.2794,19.2983 -5.3863,19.2917 -5.4973,19.2986 -5.6126,19.3186 -5.7321,19.3513 -5.8561,19.3963 -5.9845,19.4529 -6.1174,19.5205 -6.2546,19.5984 -6.3963,19.6857 -6.5422,19.7817 -6.6921,19.8852 -6.846,19.9955 -7.0036,20.1115 -7.1646,20.2321 -7.3287,20.3563 -7.4957,20.483 -7.6653,20.6112 -7.8369,20.7398 -8.0104,20.8678 -8.1853,20.9941 -8.3611,21.1178 -8.5376,21.2379 -8.7142,21.3535 -8.8906,21.4638 -9.0663,21.568 -9.2411,21.6654 -9.4144,21.7554 -9.586,21.8374 -9.7554,21.911 -9.9225,21.9758 -10.0868,22.0315 -10.2482,22.0779 -10.4065,22.1148 -10.5614,22.1424 -10.7128,22.1605 -10.8607,22.1694 -11.005,22.1694 -11.1457,22.1607 -11.2828,22.1437 -11.4164,22.1189 -11.5468,22.0869 -11.674,22.0483 -11.7982,22.0036 -11.9198,21.9536 -12.0391,21.899 -12.1564,21.8407 -12.272,21.7793 -12.3864,21.7157 -12.5,21.6506 -12.6133,21.585 -12.7267,21.5196 -12.8407,21.4552 -12.9558,21.3925 -13.0725,21.3323 -13.1912,21.2753 -13.3125,21.222 -13.4369,21.1731 -13.5647,21.1291 -13.6963,21.0905 -13.8323,21.0576 -13.9728,21.0308 -14.1183,21.0103 -14.269,20.9962 -14.4252,20.9887 -14.5869,20.9878 -14.7544,20.9933 -14.9276,21.0052 -15.1067,21.0232 -15.2915,21.0469 -15.4819,21.076 -15.6777,21.1101 -15.8788,21.1485 -16.0847,21.1908 -16.2952,21.2363 -16.5098,21.2843 -16.728,21.3341 -16.9494,21.3848 -17.1733,21.4358 -17.3992,21.4862 -17.6263,21.5351 -17.854,21.5817 -18.0815,21.6252 -18.3082,21.6648 -18.5332,21.6996 -18.7558,21.7288 -18.9751,21.7516 -19.1905,21.7674 -19.4012,21.7754 -19.6063,21.775 -19.8052,21.7657 -19.9972,21.7468 -20.1816,21.718 -20.3577,21.6788 -20.5251,21.6289 -20.6831,21.5681 -20.8313,21.4962 -20.9692,21.4131 -21.0966,21.3187 -21.2132,21.2132 -21.3187,21.0966 -21.4131,20.9692 -21.4962,20.8313 -21.5681,20.6831 -21.6289,20.5251 -21.6788,20.3577 -21.718,20.1816 -21.7468,19.9972 -21.7657,19.8052 -21.775,19.6063 -21.7754,19.4012 -21.7674,19.1905 -21.7516,18.9751 -21.7288,18.7558 -21.6996,18.5332 -21.6648,18.3082 -21.6252,18.0815 -21.5817,17.854 -21.5351,17.6263 -21.4862,17.3992 -21.4358,17.1733 -21.3848,16.9494 -21.3341,16.728 -21.2843,16.5098 -21.2363,16.2952 -21.1908,16.0847 -21.1485,15.8788 -21.1101,15.6777 -21.076,15.4819 -21.0469,15.2915 -21.0232,15.1067 -21.0052,14.9276 -20.9933,14.7544 -20.9878,14.5869 -20.9887,14.4252 -20.9962,14.269 -21.0103,14.1183 -21.0308,13.9728 -21.0576,13.8323 -21.0905,13.6963 -21.1291,13.5647 -21.1731,13.4369 -21.222,13.3125 -21.2753,13.1912 -21.3323,13.0725 -21.3925,12.9558 -21.4552,12.8407 -21.5196,12.7267 -21.585,12.6133 -21.6506,12.5 -21.7157,12.3864 -21.7793,12.272 -21.8407,12.1564 -21.899,12.0391 -21.9536,11.9198 -22.0036,11.7982 -22.0483,11.674 -22.0869,11.5468 -22.1189,11.4164 -22.1437,11.2828 -22.1607,11.1457 -22.1694,11.005 -22.1694,10.8607 -22.1605,10.7128 -22.1424,10.5614 -22.1148,10.4065 -22.0779,10.2482 -22.0315,10.0868 -21.9758,9.9225 -21.911,9.7554 -21.8374,9.586 -21.7554,9.4144 -21.6654,9.2411 -21.568,9.0663 -21.4638,8.8906 -21.3535,8.7142 -21.2379,8.5376 -21.1178,8.3611 -20.9941,8.1853 -20.8678,8.0104 -20.7398,7.8369 -20.6112,7.6653 -20.483,7.4957 -20.3563,7.3287 -20.2321,7.1646 -20.1115,7.0036 -19.9955,6.846 -19.8852,6.6921 -19.7817,6.5422 -19.6857,6.3963 -19.5984,6.2546 -19.5205,6.1174 -19.4529,5.9845 -19.3963,5.8561 -19.3513,5.7321 -19.3186,5.6126 -19.2986,5.4973 -19.2917,5.3863 -19.2983,5.2794 -19.3185,5.1764" stroke="goldenrod" stroke-width="3" /><polyline fill="white" points="-19.3185,5.1764 -19.3525,5.077 -19.4003,4.9811 -19.4617,4.8884 -19.5366,4.7987 -19.6248,4.7115 -19.7257,4.6266 -19.8389,4.5437 -19.9639,4.4625 -20.1,4.3825 -20.2465,4.3035 -20.4025,4.2252 -20.5672,4.1471 -20.7396,4.069 -20.9188,3.9905 -21.1038,3.9114 -21.2934,3.8313 -21.4867,3.75 -21.6825,3.6673 -21.8797,3.5829 -22.0773,3.4967 -22.2741,3.4084 -22.4691,3.3179 -22.6613,3.2252 -22.8498,3.13 -23.0335,3.0324 -23.2116,2.9323 -23.3833,2.8297 -23.5479,2.7246 -23.7048,2.617 -23.8532,2.5071 -23.9929,2.3948 -24.1233,2.2803 -24.2441,2.1637 -24.3552,2.0452 -24.4565,1.9248 -24.548,1.8027 -24.6296,1.6791 -24.7017,1.5541 -24.7645,1.4279 -24.8184,1.3007 -24.8638,1.1725 -24.9012,1.0437 -24.9313,0.9142 -24.9548,0.7842 -24.9723,0.6539 -24.9847,0.5234 -24.9927,0.3926 -24.9974,0.2618 -24.9995,0.1309 -25.0,0.0 -24.9998,-0.1309 -24.9999,-0.2618 -25.0011,-0.3927 -25.0044,-0.5238 -25.0106,-0.6549 -25.0205,-0.7863 -25.0351,-0.918 -25.0549,-1.0501 -25.0807,-1.1828 -25.1131,-1.3161 -25.1526,-1.4503 -25.1996,-1.5854 -25.2546,-1.7217 -25.3178,-1.8592 -25.3893,-1.9982 -25.4694,-2.1387 -25.5579,-2.281 -25.6548,-2.4251 -25.7599,-2.5712 -25.8729,-2.7193 -25.9933,-2.8697 -26.1207,-3.0223 -26.2545,-3.1771 -26.3941,-3.3344 -26.5388,-3.4939 -26.6876,-3.6558 -26.8399,-3.8199 -26.9945,-3.9862 -27.1506,-4.1546 -27.3072,-4.325 -27.4631,-4.4973 -27.6173,-4.6711 -27.7688,-4.8464 -27.9164,-5.0229 -28.059,-5.2004 -28.1955,-5.3786 -28.325,-5.5571 -28.4464,-5.7358 -28.5586,-5.9142 -28.6609,-6.0921 -28.7522,-6.269 -28.8319,-6.4447 -28.8991,-6.6188 -28.9533,-6.7909 -28.9937,-6.9608 -29.0201,-7.128 -29.0319,-7.2923 -29.0289,-7.4534 -29.0109,-7.6109 -28.9778,-7.7646 -28.9296,-7.9142 -28.8664,-8.0597 -28.7885,-8.2006 -28.6961,-8.337 -28.5897,-8.4687 -28.4697,-8.5955 -28.3368,-8.7175 -28.1915,-8.8347 -28.0347,-8.947 -27.8671,-9.0546 -27.6896,-9.1575 -27.5032,-9.2558 -27.3088,-9.3499 -27.1073,-9.4398 -26.9,-9.5258 -26.6877,-9.6082 -26.4717,-9.6873 -26.2529,-9.7634 -26.0324,-9.8368 -25.8112,-9.908 -25.5904,-9.9773 -25.371,-10.0451 -25.1539,-10.1118 -24.94,-10.1778 -24.7302,-10.2436 -24.5252,-10.3094 -24.3257,-10.3758 -24.1323,-10.443 -23.9457,-10.5114 -23.7662,-10.5814 -23.5943,-10.6532 -23.4303,-10.7272 -23.2743,-10.8036 -23.1265,-10.8825 -22.9869,-10.9642 -22.8554,-11.0488 -22.732,-11.1363 -22.6162,-11.2268 -22.5079,-11.3203 -22.4066,-11.4167 -22.3119,-11.516 -22.2232,-11.618 -22.14,-11.7225 -22.0616,-11.8293 -21.9872,-11.9381 -21.9163,-12.0486 -21.8479,-12.1604 -21.7814,-12.2732 -21.7159,-12.3865 -21.6506,-12.5 -21.5848,-12.6131 -21.5175,-12.7254 -21.448,-12.8364 -21.3757,-12.9456 -21.2997,-13.0525 -21.2194,-13.1566 -21.1341,-13.2574 -21.0433,-13.3545 -20.9464,-13.4473 -20.843,-13.5356 -20.7328,-13.6189 -20.6153,-13.6968 -20.4903,-13.7689 -20.3578,-13.8352 -20.2176,-13.8952 -20.0697,-13.9488 -19.9142,-13.9959 -19.7512,-14.0364 -19.581,-14.0704 -19.404,-14.0978 -19.2204,-14.1188 -19.0308,-14.1335 -18.8357,-14.1423 -18.6357,-14.1453 -18.4314,-14.1429 -18.2235,-14.1356 -18.0127,-14.1238 -17.7998,-14.108 -17.5857,-14.0888 -17.3711,-14.0669 -17.1569,-14.0428 -16.9439,-14.0172 -16.733,-13.991 -16.525,-13.9647 -16.3207,-13.9392 -16.121,-13.9153 -15.9266,-13.8936 -15.7382,-13.8751 -15.5565,-13.8603 -15.3822,-13.8502 -15.2159,-13.8454 -15.058,-13.8466 -14.9092,-13.8545 -14.7696,-13.8696 -14.6398,-13.8927 -14.5199,-13.9241 -14.4101,-13.9644 -14.3106,-14.0139 -14.2212,-14.0731 -14.1421,-14.1421" stroke="goldenrod" stroke-width="3" /><polyline fill="white" points="-14.1421,-14.1421 -14.0731,-14.2212 -14.0139,-14.3106 -13.9644,-14.4101 -13.9241,-14.5199 -13.8927,-14.6398 -13.8696,-14.7696 -13.8545,-14.9092 -13.8466,-15.058 -13.8454,-15.2159 -13.8502,-15.3822 -13.8603,-15.5565 -13.8751,-15.7382 -13.8936,-15.9266 -13.9153,-16.121 -13.9392,-16.3207 -13.9647,-16.525 -13.991,-16.733 -14.0172,-16.9439 -14.0428,-17.1569 -14.0669,-17.3711 -14.0888,-17.5857 -14.108,-17.7998 -14.1238,-18.0127 -14.1356,-18.2235 -14.1429,-18.4314 -14.1453,-18.6357 -14.1423,-18.8357 -14.1335,-19.0308 -14.1188,-19.2204 -14.0978,-19.404 -14.0704,-19.581 -14.0364,-19.7512 -13.9959,-19.9142 -13.9488,-20.0697 -13.8952,-20.2176 -13.8352,-20.3578 -13.7689,-20.4903 -13.6968,-20.6153 -13.6189,-20.7328 -13.5356,-20.843 -13.4473,-20.9464 -13.3545,-21.0433 -13.2574,-21.1341 -13.1566,-21.2194 -13.0525,-21.2997 -12.9456,-21.3757 -12.8364,-21.448 -12.7254,-21.5175 -12.6131,-21.5848 -12.5,-21.6506 -12.3865,-21.7159 -12.2732,-21.7814 -12.1604,-21.8479 -12.0486,-21.9163 -11.9381,-21.9872 -11.8293,-22.0616 -11.7225,-22.14 -11.618,-22.2232 -11.516,-22.3119 -11.4167,-22.4066 -11.3203,-22.5079 -11.2268,-22.6162 -11.1363,-22.732 -11.0488,-22.8554 -10.9642,-22.9869 -10.8825,-23.1265 -10.8036,-23.2743 -10.7272,-23.4303 -10.6532,-23.5943 -10.5814,-23.7662 -10.5114,-23.9457 -10.443,-24.1323 -10.3758,-24.3257 -10.3094,-24.5252 -10.2436,-24.7302 -10.1778,-24.94 -10.1118,-25.1539 -10.0451,-25.371 -9.9773,-25.5904 -9.908,-25.8112 -9.8368,-26.0324 -9.7634,-26.2529 -9.6873,-26.4717 -9.6082,-26.6877 -9.5258,-26.9 -9.4398,-27.1073 -9.3499,-27.3088 -9.2558,-27.5032 -9.1575,-27.6896 -9.0546,-27.8671 -8.947,-28.0347 -8.8347,-28.1915 -8.7175,-28.3368 -8.5955,-28.4697 -8.4687,-28.5897 -8.337,-28.6961 -8.2006,-28.7885 -8.0597,-28.8664 -7.9142,-28.9296 -7.7646,-28.9778 -7.6109,-29.0109 -7.4534,-29.0289 -7.2923,-29.0319 -7.128,-29.0201 -6.9608,-28.9937 -6.7909,-28.9533 -6.6188,-28.8991 -6.4447,-28.8319 -6.269,-28.7522 -6.0921,-28.6609 -5.9142,-28.5586 -5.7358,-28.4464 -5.5571,-28.325 -5.3786,-28.1955 -5.2004,-28.059 -5.0229,-27.9164 -4.8464,-27.7688 -4.6711,-27.6173 -4.4973,-27.4631 -4.325,-27.3072 -4.1546,-27.1506 -3.9862,-26.9945 -3.8199,-26.8399 -3.6558,-26.6876 -3.4939,-26.5388 -3.3344,-26.3941 -3.1771,-26.2545 -3.0223,-26.1207 -2.8697,-25.9933 -2.7193,-25.8729 -2.5712,-25.7599 -2.4251,-25.6548 -2.281,-25.5579 -2.1387,-25.4694 -1.9982,-25.3893 -1.8592,-25.3178 -1.7217,-25.2546 -1.5854,-25.1996 -1.4503,-25.1526 -1.3161,-25.1131 -1.1828,-25.0807 -1.0501,-25.0549 -0.918,-25.0351 -0.7863,-25.0205 -0.6549,-25.0106 -0.5238,-25.0044 -0.3927,-25.0011 -0.2618,-24.9999 -0.1309,-24.9998 -0.0,-25.0 0.1309,-24.9995 0.2618,-24.9974 0.3926,-24.9927 0.5234,-24.9847 0.6539,-24.9723 0.7842,-24.9548 0.9142,-24.9313 1.0437,-24.9012 1.1725,-24.8638 1.3007,-24.8184 1.4279,-24.7645 1.5541,-24.7017 1.6791,-24.6296 1.8027,-24.548 1.9248,-24.4565 2.0452,-24.3552 2.1637,-24.2441 2.2803,-24.1233 2.3948,-23.9929 2.5071,-23.8532 2.617,-23.7048 2.7246,-23.5479 2.8297,-23.3833 2.9323,-23.2116 3.0324,-23.0335 3.13,-22.8498 3.2252,-22.6613 3.3179,-22.4691 3.4084,-22.2741 3.4967,-22.0773 3.5829,-21.8797 3.6673,-21.6825 3.75,-21.4867 3.8313,-21.2934 3.9114,-21.1038 3.9905,-20.9188 4.069,-20.7396 4.1471,-20.5672 4.2252,-20.4025 4.3035,-20.2465 4.3825,-20.1 4.4625,-19.9639 4.5437,-19.8389 4.6266,-19.7257 4.7115,-19.6248 4.7987,-19.5366 4.8884,-19.4617 4.9811,-19.4003 5.077,-19.3525 5.1764,-19.3185" stroke="goldenrod" stroke-width="3" /><polyline fill="white" points="5.1764,-19.3185 5.2794,-19.2983 5.3863,-19.2917 5.4973,-19.2986 5.6126,-19.3186 5.7321,-19.3513 5.8561,-19.3963 5.9845,-19.4529 6.1174,-19.5205 6.2546,-19.5984 6.3963,-19.6857 6.5422,-19.7817 6.6921,-19.8852 6.846,-19.9955 7.0036,-20.1115 7.1646,-20.2321 7.3287,-20.3563 7.4957,-20.483 7.6653,-20.6112 7.8369,-20.7398 8.0104,-20.8678 8.1853,-20.9941 8.3611,-21.1178 8.5376,-21.2379 8.7142,-21.3535 8.8906,-21.4638 9.0663,-21.568 9.2411,-21.6654 9.4144,-21.7554 9.586,-21.8374 9.7554,-21.911 9.9225,-21.9758 10.0868,-22.0315 10.2482,-22.0779 10.4065,-22.1148 10.5614,-22.1424 10.7128,-22.1605 10.8607,-22.1694 11.005,-22.1694 11.1457,-22.1607 11.2828,-22.1437 11.4164,-22.1189 11.5468,-22.0869 11.674,-22.0483 11.7982,-22.0036 11.9198,-21.9536 12.0391,-21.899 12.1564,-21.8407 12.272,-21.7793 12.3864,-21.7157 12.5,-21.6506 12.6133,-21.585 12.7267,-21.5196 12.8407,-21.4552 12.9558,-21.3925 13.0725,-21.3323 13.1912,-21.2753 13.3125,-21.222 13.4369,-21.1731 13.5647,-21.1291 13.6963,-21.0905 13.8323,-21.0576 13.9728,-21.0308 14.1183,-21.0103 14.269,-20.9962 14.4252,-20.9887 14.5869,-20.9878 14.7544,-20.9933 14.9276,-21.0052 15.1067,-21.0232 15.2915,-21.0469 15.4819,-21.076 15.6777,-21.1101 15.8788,-21.1485 16.0847,-21.1908 16.2952,-21.2363 16.5098,-21.2843 16.728,-21.3341 16.9494,-21.3848 17.1733,-21.4358 17.3992,-21.4862 17.6263,-21.5351 17.854,-21.5817 18.0815,-21.6252 18.3082,-21.6648 18.5332,-21.6996 18.7558,-21.7288 18.9751,-21.7516 19.1905,-21.7674 19.4012,-21.7754 19.6063,-21.775 19.8052,-21.7657 19.9972,-21.7468 20.1816,-21.718 20.3577,-21.6788 20.5251,-21.6289 20.6831,-21.5681 20.8313,-21.4962 20.9692,-21.4131 21.0966,-21.3187 21.2132,-21.2132 21.3187,-21.0966 21.4131,-20.9692 21.4962,-20.8313 21.5681,-20.6831 21.6289,-20.5251 21.6788,-20.3577 21.718,-20.1816 21.7468,-19.9972 21.7657,-19.8052 21.775,-19.6063 21.7754,-19.4012 21.7674,-19.1905 21.7516,-18.9751 21.7288,-18.7558 21.6996,-18.5332 21.6648,-18.3082 21.6252,-18.0815 21.5817,-17.854 21.5351,-17.6263 21.4862,-17.3992 21.4358,-17.1733 21.3848,-16.9494 21.3341,-16.728 21.2843,-16.5098 21.2363,-16.2952 21.1908,-16.0847 21.1485,-15.8788 21.1101,-15.6777 21.076,-15.4819 21.0469,-15.2915 21.0232,-15.1067 21.0052,-14.9276 20.9933,-14.7544 20.9878,-14.5869 20.9887,-14.4252 20.9962,-14.269 21.0103,-14.1183 21.0308,-13.9728 21.0576,-13.8323 21.0905,-13.6963 21.1291,-13.5647 21.1731,-13.4369 21.222,-13.3125 21.2753,-13.1912 21.3323,-13.0725 21.3925,-12.9558 21.4552,-12.8407 21.5196,-12.7267 21.585,-12.6133 21.6506,-12.5 21.7157,-12.3864 21.7793,-12.272 21.8407,-12.1564 21.899,-12.0391 21.9536,-11.9198 22.0036,-11.7982 22.0483,-11.674 22.0869,-11.5468 22.1189,-11.4164 22.1437,-11.2828 22.1607,-11.1457 22.1694,-11.005 22.1694,-10.8607 22.1605,-10.7128 22.1424,-10.5614 22.1148,-10.4065 22.0779,-10.2482 22.0315,-10.0868 21.9758,-9.9225 21.911,-9.7554 21.8374,-9.586 21.7554,-9.4144 21.6654,-9.2411 21.568,-9.0663 21.4638,-8.8906 21.3535,-8.7142 21.2379,-8.5376 21.1178,-8.3611 20.9941,-8.1853 20.8678,-8.0104 20.7398,-7.8369 20.6112,-7.6653 20.483,-7.4957 20.3563,-7.3287 20.2321,-7.1646 20.1115,-7.0036 19.9955,-6.846 19.8852,-6.6921 19.7817,-6.5422 19.6857,-6.3963 19.5984,-6.2546 19.5205,-6.1174 19.4529,-5.9845 19.3963,-5.8561 19.3513,-5.7321 19.3186,-5.6126 19.2986,-5.4973 19.2917,-5.3863 19.2983,-5.2794 19.3185,-5.1764" stroke="goldenrod" stroke-width="3" /><polyline fill="white" points="19.3185,-5.1764 19.3525,-5.077 19.4003,-4.9811 19.4617,-4.8884 19.5366,-4.7987 19.6248,-4.7115 19.7257,-4.6266 19.8389,-4.5437 19.9639,-4.4625 20.1,-4.3825 20.2465,-4.3035 20.4025,-4.2252 20.5672,-4.1471 20.7396,-4.069 20.9188,-3.9905 21.1038,-3.9114 21.2934,-3.8313 21.4867,-3.75 21.6825,-3.6673 21.8797,-3.5829 22.0773,-3.4967 22.2741,-3.4084 22.4691,-3.3179 22.6613,-3.2252 22.8498,-3.13 23.0335,-3.0324 23.2116,-2.9323 23.3833,-2.8297 23.5479,-2.7246 23.7048,-2.617 23.8532,-2.5071 23.9929,-2.3948 24.1233,-2.2803 24.2441,-2.1637 24.3552,-2.0452 24.4565,-1.9248 24.548,-1.8027 24.6296,-1.6791 24.7017,-1.5541 24.7645,-1.4279 24.8184,-1.3007 24.8638,-1.1725 24.9012,-1.0437 24.9313,-0.9142 24.9548,-0.7842 24.9723,-0.6539 24.9847,-0.5234 24.9927,-0.3926 24.9974,-0.2618 24.9995,-0.1309 25.0,-0.0 24.9998,0.1309 24.9999,0.2618 25.0011,0.3927 25.0044,0.5238 25.0106,0.6549 25.0205,0.7863 25.0351,0.918 25.0549,1.0501 25.0807,1.1828 25.1131,1.3161 25.1526,1.4503 25.1996,1.5854 25.2546,1.7217 25.3178,1.8592 25.3893,1.9982 25.4694,2.1387 25.5579,2.281 25.6548,2.4251 25.7599,2.5712 25.8729,2.7193 25.9933,2.8697 26.1207,3.0223 26.2545,3.1771 26.3941,3.3344 26.5388,3.4939 26.6876,3.6558 26.8399,3.8199 26.9945,3.9862 27.1506,4.1546 27.3072,4.325 27.4631,4.4973 27.6173,4.6711 27.7688,4.8464 27.9164,5.0229 28.059,5.2004 28.1955,5.3786 28.325,5.5571 28.4464,5.7358 28.5586,5.9142 28.6609,6.0921 28.7522,6.269 28.8319,6.4447 28.8991,6.6188 28.9533,6.7909 28.9937,6.9608 29.0201,7.128 29.0319,7.2923 29.0289,7.4534 29.0109,7.6109 28.9778,7.7646 28.9296,7.9142 28.8664,8.0597 28.7885,8.2006 28.6961,8.337 28.5897,8.4687 28.4697,8.5955 28.3368,8.7175 28.1915,8.8347 28.0347,8.947 27.8671,9.0546 27.6896,9.1575 27.5032,9.2558 27.3088,9.3499 27.1073,9.4398 26.9,9.5258 26.6877,9.6082 26.4717,9.6873 26.2529,9.7634 26.0324,9.8368 25.8112,9.908 25.5904,9.9773 25.371,10.0451 25.1539,10.1118 24.94,10.1778 24.7302,10.2436 24.5252,10.3094 24.3257,10.3758 24.1323,10.443 23.9457,10.5114 23.7662,10.5814 23.5943,10.6532 23.4303,10.7272 23.2743,10.8036 23.1265,10.8825 22.9869,10.9642 22.8554,11.0488 22.732,11.1363 22.6162,11.2268 22.5079,11.3203 22.4066,11.4167 22.3119,11.516 22.2232,11.618 22.14,11.7225 22.0616,11.8293 21.9872,11.9381 21.9163,12.0486 21.8479,12.1604 21.7814,12.2732 21.7159,12.3865 21.6506,12.5 21.5848,12.6131 21.5175,12.7254 21.448,12.8364 21.3757,12.9456 21.2997,13.0525 21.2194,13.1566 21.1341,13.2574 21.0433,13.3545 20.9464,13.4473 20.843,13.5356 20.7328,13.6189 20.6153,13.6968 20.4903,13.7689 20.3578,13.8352 20.2176,13.8952 20.0697,13.9488 19.9142,13.9959 19.7512,14.0364 19.581,14.0704 19.404,14.0978 19.2204,14.1188 19.0308,14.1335 18.8357,14.1423 18.6357,14.1453 18.4314,14.1429 18.2235,14.1356 18.0127,14.1238 17.7998,14.108 17.5857,14.0888 17.3711,14.0669 17.1569,14.0428 16.9439,14.0172 16.733,13.991 16.525,13.9647 16.3207,13.9392 16.121,13.9153 15.9266,13.8936 15.7382,13.8751 15.5565,13.8603 15.3822,13.8502 15.2159,13.8454 15.058,13.8466 14.9092,13.8545 14.7696,13.8696 14.6398,13.8927 14.5199,13.9241 14.4101,13.9644 14.3106,14.0139 14.2212,14.0731 14.1421,14.1421" stroke="goldenrod" stroke-width="3" /><circle cx="0" cy="0" fill="white" r="20" stroke="goldenrod" stroke-width="3" /></svg>